<?xml version="1.0" encoding="UTF-8" standalone="no"?>
<!-- Created with Inkscape (http://www.inkscape.org/) -->

<svg
   xmlns:dc="http://purl.org/dc/elements/1.1/"
   xmlns:cc="http://creativecommons.org/ns#"
   xmlns:rdf="http://www.w3.org/1999/02/22-rdf-syntax-ns#"
   xmlns:svg="http://www.w3.org/2000/svg"
   xmlns="http://www.w3.org/2000/svg"
   xmlns:sodipodi="http://sodipodi.sourceforge.net/DTD/sodipodi-0.dtd"
   xmlns:inkscape="http://www.inkscape.org/namespaces/inkscape"
   width="16"
   height="16"
   id="svg4884"
   version="1.1"
   inkscape:version="0.91 r13725"
   viewBox="0 0 16 16"
   sodipodi:docname="polling_1.svg">
  <defs
     id="defs4886">
    <clipPath
       clipPathUnits="userSpaceOnUse"
       id="clipPath622">
      <path
         d="m 0,1940 716,0 L 716,0 0,0 0,1940 Z"
         id="path624"
         inkscape:connector-curvature="0" />
    </clipPath>
  </defs>
  <sodipodi:namedview
     id="base"
     pagecolor="#ffffff"
     bordercolor="#666666"
     borderopacity="1.0"
     inkscape:pageopacity="0.0"
     inkscape:pageshadow="2"
     inkscape:zoom="22.197802"
     inkscape:cx="8"
     inkscape:cy="8"
     inkscape:current-layer="layer1"
     showgrid="true"
     inkscape:grid-bbox="true"
     inkscape:document-units="px"
     inkscape:window-width="1855"
     inkscape:window-height="1056"
     inkscape:window-x="65"
     inkscape:window-y="24"
     inkscape:window-maximized="1"
     inkscape:snap-others="false" />
  <metadata
     id="metadata4889">
    <rdf:RDF>
      <cc:Work
         rdf:about="">
        <dc:format>image/svg+xml</dc:format>
        <dc:type
           rdf:resource="http://purl.org/dc/dcmitype/StillImage" />
        <dc:title></dc:title>
      </cc:Work>
    </rdf:RDF>
  </metadata>
  <g
     id="layer1"
     inkscape:label="Layer 1"
     inkscape:groupmode="layer">
    <g
       transform="matrix(0.62066187,0.00368945,0.00344434,-0.66483117,-57.480144,554.06791)"
       id="g618">
      <g
         id="g620"
         clip-path="url(#clipPath622)">
        <g
           id="g626"
           transform="translate(91.1847,832.9234)">
          <path
             d="m 0,0 c -1.207,0 -2.185,-0.978 -2.185,-2.185 0,-1.206 0.978,-2.184 2.185,-2.184 1.207,0 2.185,0.978 2.185,2.184 C 2.185,-0.978 1.207,0 0,0 Z"
             style="fill:none;stroke:#2eb36b;stroke-width:1.5;stroke-linecap:round;stroke-linejoin:round;stroke-miterlimit:10;stroke-dasharray:none;stroke-opacity:1"
             id="path628"
             inkscape:connector-curvature="0" />
        </g>
        <g
           id="g630"
           transform="translate(97.6295,830.7387)">
          <path
             d="M 0,0 15.371,0"
             style="fill:none;stroke:#2eb36b;stroke-width:1.5;stroke-linecap:round;stroke-linejoin:round;stroke-miterlimit:10;stroke-dasharray:none;stroke-opacity:1"
             id="path632"
             inkscape:connector-curvature="0" />
        </g>
        <g
           id="g634"
           transform="translate(91.1847,824.1847)">
          <path
             d="m 0,0 c -1.207,0 -2.185,-0.978 -2.185,-2.185 0,-1.206 0.978,-2.184 2.185,-2.184 1.207,0 2.185,0.978 2.185,2.184 C 2.185,-0.978 1.207,0 0,0 Z"
             style="fill:none;stroke:#2eb36b;stroke-width:1.5;stroke-linecap:round;stroke-linejoin:round;stroke-miterlimit:10;stroke-dasharray:none;stroke-opacity:1"
             id="path636"
             inkscape:connector-curvature="0" />
        </g>
        <g
           id="g638"
           transform="translate(97.6295,822)">
          <path
             d="M 0,0 15.371,0"
             style="fill:none;stroke:#2eb36b;stroke-width:1.5;stroke-linecap:round;stroke-linejoin:round;stroke-miterlimit:10;stroke-dasharray:none;stroke-opacity:1"
             id="path640"
             inkscape:connector-curvature="0" />
        </g>
        <g
           id="g642"
           transform="translate(91.1847,815.446)">
          <path
             d="m 0,0 c -1.207,0 -2.185,-0.978 -2.185,-2.185 0,-1.206 0.978,-2.184 2.185,-2.184 1.207,0 2.185,0.978 2.185,2.184 C 2.185,-0.978 1.207,0 0,0 Z"
             style="fill:none;stroke:#2eb36b;stroke-width:1.5;stroke-linecap:round;stroke-linejoin:round;stroke-miterlimit:10;stroke-dasharray:none;stroke-opacity:1"
             id="path644"
             inkscape:connector-curvature="0" />
        </g>
        <g
           id="g646"
           transform="translate(97.6295,813.2613)">
          <path
             d="M 0,0 15.371,0"
             style="fill:none;stroke:#2eb36b;stroke-width:1.5;stroke-linecap:round;stroke-linejoin:round;stroke-miterlimit:10;stroke-dasharray:none;stroke-opacity:1"
             id="path648"
             inkscape:connector-curvature="0" />
        </g>
      </g>
    </g>
    <path
       style="fill:#008000"
       d="M 9.9261024,14.254752 C 6.1725428,14.232539 5.791729,14.223578 5.6870975,14.155 5.4258117,13.983746 5.4082097,13.583439 5.6529116,13.377536 l 0.1365806,-0.114925 4.8511198,0.02805 c 3.885482,0.02247 4.880587,0.04 4.999153,0.08806 0.342373,0.138801 0.348479,0.671022 0.0096,0.84029 -0.13316,0.06652 -0.269731,0.07732 -0.878465,0.06945 -0.396436,-0.0051 -2.576613,-0.02029 -4.8448386,-0.03372 z"
       id="path4983"
       inkscape:connector-curvature="0" />
    <path
       style="fill:#008000"
       d="m 1.5165396,15.608333 c -0.90828631,-0.2322 -1.53355886,-1.22603 -1.37466277,-2.184937 0.17512639,-1.056855 1.09217207,-1.773954 2.04816797,-1.6016 0.7031767,0.126773 1.2657865,0.658095 1.4513254,1.370614 0.3114906,1.196208 -0.4968939,2.398395 -1.6410726,2.440519 -0.1863197,0.0069 -0.4040108,-0.0042 -0.483758,-0.0246 z m 0.731025,-0.988983 c 0.220303,-0.100082 0.4441817,-0.346491 0.5179832,-0.570111 0.030188,-0.09147 0.046237,-0.285902 0.035665,-0.432068 -0.067255,-0.929794 -1.2606203,-1.180588 -1.6736575,-0.35173 -0.19762304,0.396577 -0.14709025,0.799277 0.1405483,1.120039 0.2696068,0.300653 0.6385435,0.388746 0.9794615,0.23387 z"
       id="path4985"
       inkscape:connector-curvature="0" />
    <path
       style="fill:#008000"
       d="M 1.4716977,9.775291 C 0.9809906,9.6151432 0.59351624,9.2706438 0.35006986,8.7780635 -0.12380869,7.8192353 0.2846599,6.584801 1.2170582,6.157935 2.3070165,5.6589355 3.4914106,6.3377127 3.7151323,7.5895831 3.8637831,8.4213819 3.4292259,9.301041 2.6898448,9.6650371 2.4457194,9.7852196 2.3343514,9.8119048 2.0288922,9.8234099 1.8021487,9.8319502 1.5888704,9.8135316 1.4716977,9.775291 Z M 2.2021287,8.8419733 C 2.4468677,8.7747381 2.7321138,8.4729559 2.8083732,8.200584 3.0990447,7.1624073 1.8238414,6.4840528 1.2136453,7.3522559 1.0979699,7.5168419 1.0752298,7.5951453 1.0633039,7.869943 1.0506368,8.1618167 1.0625781,8.2165202 1.1845148,8.4252249 1.28931,8.6045901 1.3729429,8.6832306 1.5558129,8.7743586 1.815553,8.9037925 1.9325509,8.9160323 2.2021287,8.8419733 Z"
       id="path4987"
       inkscape:connector-curvature="0" />
    <path
       style="fill:#008000"
       d="M 9.8380198,8.4440826 C 5.6144896,8.4174692 5.7361354,8.4242798 5.5831519,8.2058653 5.4328231,7.9912408 5.5378193,7.5962081 5.7701775,7.5022091 c 0.09286,-0.037566 1.4099036,-0.042198 5.0063415,-0.017608 l 4.880332,0.033369 0.131426,0.1471216 c 0.181743,0.2034475 0.181767,0.4482955 4.5e-5,0.6517964 l -0.131345,0.1471216 -0.916038,0.0026 c -0.503821,0.00143 -2.710135,-0.00871 -4.9029192,-0.022525 z"
       id="path4989"
       inkscape:connector-curvature="0" />
    <path
       style="fill:#008000"
       d="M 9.7210337,2.6320661 C 5.5978563,2.6060299 5.78343,2.6163067 5.6181095,2.4048514 5.5283942,2.2900999 5.5114433,2.0909766 5.5778586,1.9320223 c 0.12756,-0.305294 -0.188116,-0.2892396 5.1414254,-0.2614796 3.833419,0.019967 4.847312,0.037205 4.963451,0.084389 0.297761,0.1209712 0.364492,0.5593641 0.120118,0.7891262 -0.115024,0.1081462 -0.119509,0.1085738 -1.159335,0.1105333 -0.574126,0.00108 -2.789244,-0.00905 -4.9224843,-0.022525 z"
       id="path4991"
       inkscape:connector-curvature="0" />
    <path
       style="fill:#008000"
       d="M 1.4547095,3.9412024 C 0.15777249,3.5262544 -0.24341945,1.7678374 0.7230961,0.73455408 1.5827159,-0.18444901 3.034244,0.08601953 3.5889168,1.2685529 3.7105588,1.5278874 3.7335441,1.6341639 3.748782,2.0077173 3.7703214,2.5357497 3.6904871,2.8344416 3.420486,3.236004 2.9801949,3.8908321 2.1868325,4.1754412 1.4547095,3.9412024 Z M 2.4545223,2.9252097 C 2.8563847,2.6592698 2.9989778,2.0645368 2.7624319,1.6409681 2.5433686,1.2487047 2.1879127,1.0811713 1.7492947,1.1634565 1.5047692,1.2093298 1.1755401,1.5541072 1.1036554,1.8395871 0.97563619,2.3479977 1.2518023,2.8891188 1.7149172,3.0372958 c 0.204181,0.065329 0.550917,0.012782 0.7396051,-0.1120861 z"
       id="path4993"
       inkscape:connector-curvature="0" />
  </g>
</svg>
